# xmcd
# 
# Track frame offsets:
#   150
#   17100
#   39900
#   55575
#   75525
#   91425
#   108150
#   120075
#   137025
#   156075
#   171900
#   187575
#   204525
#   225450
#   249000
# 
# Disc length: 3601 seconds
# 
# Revision: 2
# Processed by: cddbd v1.5.2PL0 Copyright (c) Steve Scherf et al.
# Submitted via: VOLTOCDX V1.0.24 
# 
DISCID=a30e0f0f
DTITLE=Various Artist - Sweet Georgia Brown- 21st Century Tool Box Disc 16
DYEAR=2010
DGENRE=Karaoke
TTITLE0=Allman Brothers - Melissa
TTITLE1=Tucker, Marshall - Can't You See
TTITLE2=Charlie Daniels - Long Haired Country Boy
TTITLE3=ZZ Top - I'm Bad, I'm Nationwide
TTITLE4=Vaughn, Stevie Ray - Look At Little Sister
TTITLE5=Vaughn, Stevie Ray - Cold Shot
TTITLE6=ZZ Top - Beer Drinkers And Hell Raisers
TTITLE7=38 Special - Hold On Loosely
TTITLE8=ZZ Top - Blue Jean Blues
TTITLE9=Allman Brothers - One Way Out
TTITLE10=Tucker, Marshall - 24 Hours At A Time
TTITLE11=Allman Brothers - Ain't Wastin' Time No More
TTITLE12=Molly Hatchet - Dreams
TTITLE13=Lynyrd Skynyrd - Sweet Home Alabama
TTITLE14=Lynyrd Skynyrd - Free Bird
EXTD=
EXTT0=
EXTT1=
EXTT2=
EXTT3=
EXTT4=
EXTT5=
EXTT6=
EXTT7=
EXTT8=
EXTT9=
EXTT10=
EXTT11=
EXTT12=
EXTT13=
EXTT14=
PLAYORDER=
